<?xml version="1.0" encoding="utf-8"?>
<!-- Generator: Adobe Illustrator 26.0.0, SVG Export Plug-In . SVG Version: 6.00 Build 0)  -->
<svg version="1.1" id="_图层_1" xmlns="http://www.w3.org/2000/svg" xmlns:xlink="http://www.w3.org/1999/xlink" x="0px" y="0px"
	 viewBox="0 0 3000 3000" style="enable-background:new 0 0 3000 3000;" xml:space="preserve">
<style type="text/css">
	.st0{fill:#F2876D;}
	.st1{fill:url(#SVGID_1_);}
	.st2{fill:url(#SVGID_00000049181836752988328090000007632012282272268705_);}
	.st3{fill:url(#SVGID_00000176730129012273668730000000084403312005090220_);}
	.st4{fill:#FFBC9A;}
	.st5{fill:url(#SVGID_00000006679874077933185080000010701700908772865410_);}
	.st6{fill:url(#SVGID_00000050645655740952703070000001976352252399430825_);}
	.st7{fill:url(#SVGID_00000014629192360217964400000007832137008846727093_);}
	.st8{fill:#564341;stroke:#564341;stroke-width:0.4;stroke-miterlimit:10;}
	.st9{fill:url(#SVGID_00000073687004789829765810000018267037898619851187_);}
	.st10{fill:url(#SVGID_00000050623383110836036220000004755701779476827301_);}
	.st11{fill:url(#SVGID_00000018220032287803516540000006164142953260919707_);}
	.st12{fill:#FAE384;}
	.st13{fill:#D1D1D1;}
	.st14{fill:#F2CE37;}
	.st15{fill:url(#SVGID_00000002371190579650575670000002238141472906765446_);}
	.st16{fill:#FFFFFF;}
	.st17{fill:url(#SVGID_00000147212680398070926730000005250744473026265525_);}
	.st18{fill:url(#SVGID_00000067916568454476020330000000386644652810469299_);}
	.st19{fill:url(#SVGID_00000162321363498605413890000003828872316322050194_);}
	.st20{fill:#C05D48;}
	.st21{fill:#564341;}
	.st22{fill:#5D3E3D;}
	.st23{fill:url(#SVGID_00000170241666426355659160000004329517317621032111_);}
	.st24{fill:#F28773;}
	.st25{fill:#FCFAF9;}
	.st26{fill:url(#SVGID_00000000184647619507780730000012366908446747373994_);}
	.st27{fill:url(#SVGID_00000176739645512312305210000007049591301900229782_);}
</style>
<path class="st0" d="M920.5,1870c27.6-14.7,54.8-29.8,87.1-27.3c8.6,0.7,17.4,5.5,25.1,10.1c3.5,2.1,4.5,8.3,6.8,13.1
	c-17.7,1.3-33.4,1.2-48.6,3.9c-14.8,2.6-29.4,7.4-43.7,12.2c-14.2,4.9-14,5.4-23.3-7.3C922.9,1873.3,921.9,1871.9,920.5,1870
	L920.5,1870z"/>
<path class="st0" d="M1037.5,1893.3c0,18.6,0.2,36.3-0.2,54c-0.3,7.7-27.1,22.1-44.2-0.2c-11-14.3-24.7-26.3-38-40.3
	C981.2,1895.7,1007.9,1890.3,1037.5,1893.3L1037.5,1893.3z"/>
<path class="st0" d="M1177.5,2086c-22.4,1.9-44.4,2.3-65.8,5.9c-13.9,2.4-20.2-1.9-23.9-14.4c-1.7-5.9-4.7-11.8-8.3-16.8
	c-18.4-24.5-14.4-53.2-16.7-82.6c31.4,1.6,63.8-0.6,87.3,23.2C1172.5,2023.9,1184.4,2052.2,1177.5,2086z"/>
<linearGradient id="SVGID_1_" gradientUnits="userSpaceOnUse" x1="2038.51" y1="-247.5001" x2="2125.01" y2="-247.5001" gradientTransform="matrix(1 0 0 1 0 2156)">
	<stop  offset="3.000000e-02" style="stop-color:#F2876D"/>
	<stop  offset="0.43" style="stop-color:#F28A6A"/>
	<stop  offset="0.75" style="stop-color:#F29463"/>
	<stop  offset="1" style="stop-color:#F4A25A"/>
	<stop  offset="1" style="stop-color:#FBCE65"/>
</linearGradient>
<path class="st1" d="M2054.2,1854.8c7.8,5.3,14.9,10.1,21.4,14.6c0.2,1.7,0.6,2.5,0.4,3.1c-11.3,25.7-11,27.4,11.8,44.8
	c10.4,7.9,21.8,14.7,28.2,26.7c3.2,5.9,6.6,11.7,8.8,18.2c-24.8-24.9-48.7-50.4-86.5-56.1
	C2043.7,1889.2,2048.8,1872.6,2054.2,1854.8L2054.2,1854.8z"/>
<linearGradient id="SVGID_00000163764504833440871740000006708522243412891529_" gradientUnits="userSpaceOnUse" x1="2005.4001" y1="-184.8889" x2="2120.6001" y2="-184.8889" gradientTransform="matrix(1 0 0 1 0 2156)">
	<stop  offset="3.000000e-02" style="stop-color:#F2876D"/>
	<stop  offset="0.43" style="stop-color:#F28A6A"/>
	<stop  offset="0.75" style="stop-color:#F29463"/>
	<stop  offset="1" style="stop-color:#F4A25A"/>
	<stop  offset="1" style="stop-color:#FBCE65"/>
</linearGradient>
<path style="fill:url(#SVGID_00000163764504833440871740000006708522243412891529_);" d="M2120.6,2011.9
	c-36.4-20.8-70.9-43.5-115.2-38.1c7.1-13.8,13.7-27,20.8-39.9c1.1-2,5.2-4,7.3-3.5c8.3,2,17.2,3.6,24.4,7.9
	c27.4,16.5,48.4,39.2,61.5,68.7C2119.9,2008.1,2120,2009.5,2120.6,2011.9L2120.6,2011.9z"/>
<linearGradient id="SVGID_00000046300521009078939920000011834585447233833639_" gradientUnits="userSpaceOnUse" x1="1952.8203" y1="-102.5659" x2="2163.9255" y2="-102.5659" gradientTransform="matrix(1 0 0 1 0 2156)">
	<stop  offset="3.000000e-02" style="stop-color:#F2876D"/>
	<stop  offset="0.43" style="stop-color:#F28A6A"/>
	<stop  offset="0.75" style="stop-color:#F29463"/>
	<stop  offset="1" style="stop-color:#F4A25A"/>
	<stop  offset="1" style="stop-color:#FBCE65"/>
</linearGradient>
<path style="fill:url(#SVGID_00000046300521009078939920000011834585447233833639_);" d="M2163.4,2104.2
	c-23.6-3.9-46.3-8.1-69.2-11.5c-24.3-3.6-48.7-6.6-73.1-9.7c-17.9-2.2-35.8-3.8-53.6-6.5c-11.7-1.8-16.6-9.8-14-21.2
	c4.9-22.2,30.8-51.9,62-52.6c39.8-0.9,70.3,17.5,100.2,39.2c18.8,13.6,33.8,31,45.4,51.1c1,1.8,1.9,3.7,2.8,5.6
	C2164,2099.2,2163.8,2100,2163.4,2104.2L2163.4,2104.2z"/>
<path class="st4" d="M1071.4,1334.1c11.9-5.1,25.3-11.1,39.1-16.3c2.1-0.8,6.4,1.7,8.3,3.8c28.1,30.8,51.1,65.2,65.6,104.2
	c17.2,46.3,29.3,94.1,22.7,144.3c-7.5,57.3-29.9,108.3-70.7,149.6c-19.9,20.1-43.5,36.6-65.4,54.6c-1.2,1-2.9,1.4-5.3,2.6
	C1067.6,1628.9,1069.5,1481.9,1071.4,1334.1L1071.4,1334.1z"/>
<path class="st4" d="M821.8,1509.5c32.7-4.4,63.5-7.5,93.8-13c23.8-4.3,47.6-11.3,66.5-27.1c35.5-29.8,32.5-78.3-5.5-109.6
	c-0.8-0.6-1.6-1.2-3.5-2.7c23.9-5.2,46.8-10.1,71.5-15.5c0,8.7,0.1,16.9,0,25c-1.6,138.4-3.2,276.9-4.6,415.3
	c-0.1,7.3-2.5,11.2-9,14.1c-40,18-81.7,29.2-125,36.4c-12.1,2-17.3-1.5-20.9-11c-8.1-21.5-16.3-43-23.6-64.8
	c-1.3-4,0.2-10.2,2.5-14.1c13.5-22.4,24.4-45.6,27.8-72.1c5.2-41.2-16.9-83-54.7-101.2c-7-3.4-11.4-6.6-11.5-15.7
	C825.6,1538.7,823.2,1523.8,821.8,1509.5L821.8,1509.5z"/>
<linearGradient id="SVGID_00000124135476215294769260000016685329822351377342_" gradientUnits="userSpaceOnUse" x1="517.718" y1="-686.2601" x2="1144.6921" y2="-686.2601" gradientTransform="matrix(1 0 0 1 0 2156)">
	<stop  offset="3.000000e-02" style="stop-color:#FFBC9A"/>
	<stop  offset="0.33" style="stop-color:#FEBC96"/>
	<stop  offset="0.57" style="stop-color:#FDBF8C"/>
	<stop  offset="0.79" style="stop-color:#FCC47C"/>
	<stop  offset="0.96" style="stop-color:#FBCA69"/>
</linearGradient>
<path style="fill:url(#SVGID_00000124135476215294769260000016685329822351377342_);" d="M692.8,1545.8
	c-35.6,15.3-50.9,44.6-56.9,80c-6.4,37.2-0.6,72.8,18.7,105.3c16.4,27.6,38.9,46.9,73.2,47.8c2.3,0.1,5.3,3.5,6.5,6.1
	c6.2,13.1,12,26.4,19.2,42.6c-20-8.5-38.6-14.8-55.6-24c-91.5-49-147.9-125.6-170.4-225.9c-23.6-105.3-4.1-204.4,54.2-294.6
	c53.7-83,128.6-139.5,225.9-161.8c101.9-23.3,195.6-3.7,277.8,62.4c17.2,13.8,31.7,31.1,47.3,47c2.2,2.2,3.8,4.9,5.3,7.6
	c11.5,20.2,8.5,31.6-11.5,43c-31.8,18.2-66.2,30-101.8,37.3c-28.8,5.9-57.9,9.9-87,14.2c-7.4,1.1-13.7,2.1-15.5,10.8
	c-1.8,8.5,2.3,13.8,8.7,18.3c12.7,9,26.4,16.9,37.6,27.4c20.1,18.9,14.1,52.2-10.6,64.8c-28.8,14.7-59.9,21.8-91.8,23.5
	c-51.8,2.7-103.8,3.4-155.6,4.8c-10.2,0.3-17.5,4.2-20.2,14.5c-2.3,8.7-4.5,17.4-6.2,26.2C682.4,1532.1,683.2,1540.7,692.8,1545.8
	L692.8,1545.8z"/>
<linearGradient id="SVGID_00000003088661957868995460000014934337002868358804_" gradientUnits="userSpaceOnUse" x1="1966.5789" y1="-663.5548" x2="2334.4009" y2="-663.5548" gradientTransform="matrix(1 0 0 1 0 2156)">
	<stop  offset="3.000000e-02" style="stop-color:#FFBC9C"/>
	<stop  offset="0.33" style="stop-color:#FEBC98"/>
	<stop  offset="0.56" style="stop-color:#FDBF8E"/>
	<stop  offset="0.78" style="stop-color:#FCC47E"/>
	<stop  offset="0.96" style="stop-color:#FBCA69"/>
</linearGradient>
<path style="fill:url(#SVGID_00000003088661957868995460000014934337002868358804_);" d="M2110.3,1505c11.7,15.4,7.7,33.3,9.6,49.8
	c3.8,33.5,5.8,67.2,8.3,100.8c0.5,6.6,0.1,13.2,0.1,20.9c-21.5,1.7-41.1-5-59.8-15.2c-5.1-2.8-10.3-5.9-14.5-9.9
	c-5.3-5.1-11.5-10.5-14.1-17.1c-12-30.4-26.5-59.4-45.1-86.3c-7.6-11-17.1-21.3-22.2-33.4c-4.6-11.1-5.8-24.2-6-36.4
	c-0.6-34.1,11.4-64.2,30.4-92.2c20.3-29.8,47.5-51.8,80.4-64c44.2-16.3,89.8-18.5,136.6-5.2c40,11.4,70.4,35.2,93,67.3
	c22,31.3,31.3,67.9,25.9,107.4c-3.3,23.8-15.2,63-23.6,67c-7,2.8-45.4-33.9-63.1-55.2c-19-22.8-23.9-22.2-45.9-3.8
	c-10.4,8.7-21.7,16.2-32.6,24.1c-5.5,4-10.4,3.1-14.2-2.4c-7.2-10.6-14.5-21.1-21.3-31.9c-8.3-13.2-17.1-16.1-30.3-8.2
	c-22.6,13.5-42.2,30.3-58.1,51.4c-3.9,5.2-6.3,10.1-0.9,15.5c5.3,5.3,10.4,3.8,15.6-0.5C2075.4,1533.3,2092.5,1519.4,2110.3,1505
	L2110.3,1505z"/>
<linearGradient id="SVGID_00000022557834667667478210000008731287624042453395_" gradientUnits="userSpaceOnUse" x1="1134.2" y1="-479.3311" x2="2028.8131" y2="-479.3311" gradientTransform="matrix(1 0 0 1 0 2156)">
	<stop  offset="3.000000e-02" style="stop-color:#FAB790"/>
	<stop  offset="0.49" style="stop-color:#FAB48E"/>
	<stop  offset="0.73" style="stop-color:#FBAC89"/>
	<stop  offset="0.91" style="stop-color:#FC9F81"/>
	<stop  offset="0.93" style="stop-color:#FD9E80"/>
</linearGradient>
<path style="fill:url(#SVGID_00000022557834667667478210000008731287624042453395_);" d="M1134.2,1759.9
	c63.8-59.2,95.8-125.2,101.2-211.1c12.1,9.8,23.5,21.3,36.9,29.5c43.3,26.7,89.2,27.2,135.8,9.2c45-17.3,81.4-46.4,110.5-84.2
	c16.3-21.2,30.5-44.1,45.3-65.6c1.1,10,2.2,21.6,3.8,33.1c7.8,55.8,28.8,105.4,74.8,140c50.6,38.1,105.9,38.7,161.8,12.1
	c50.6-24.1,89.6-63.8,121.2-120.8c14,16.3,28.7,31.1,40.7,47.9c30.5,42.6,51.2,89.8,62.4,141c0.7,3-0.4,7.3-2.2,9.8
	c-55.8,75-131,124.2-215.7,160.2c-57.6,24.5-117.8,39.8-179.7,48c-49.5,6.5-99.3,8.8-149.1,4.3c-101.8-9.1-198.2-35.3-283.1-95
	C1175.1,1801.6,1153.1,1783,1134.2,1759.9L1134.2,1759.9z"/>
<path class="st8" d="M845.3,2067.9c-18.7-6.4-31.3-25.7-24.4-46.8c8-24.3,4-50.3,14-73.7c4-9.3,0.8-14.7-5.3-21.6
	c-18.8-20.9-36.3-43-54.9-64.1c-3.2-3.7-9.2-5.6-14.3-6.9c-43-11.2-82.6-29.4-118.5-55.7c-71.3-52.1-115.6-122.1-137.8-206.9
	c-11.2-42.8-13.9-86.7-10.2-130.4c7-83.8,36.9-159.3,89.4-225.5c23.7-29.9,50.8-56.1,82.1-78.1c1.4-1,3-1.9,6.2-3.8
	c-33.7-10.8-46.2-35.1-49.8-65.1c-2.9-24.9,2.5-48.9,11.9-72.1c12.1-30.1,30.9-55,56.9-74.3c16.6-12.3,35.2-19.6,56.4-17.6
	c6.5,0.6,10.8-1.7,15.4-6.2c33-32.3,70.8-57.7,112.4-77.9C900,829,925,815.7,948,799.9c41.9-28.8,71.3-68.6,91.6-115.1
	c9.7-22.2,19.7-44.3,29.6-66.4c2.4-5.3,4.8-10.7,7.8-15.8c9.4-15.6,17.4-19.4,33.3-16.7c12.9,2.2,23.1,12.9,26.1,27.6
	c5.9,29-0.8,56.6-9.6,83.8c-10.6,32.7-22.4,64.8-42.5,93.2c-2.9,4.1-3.3,10.6-3.4,16c-0.2,100.8-0.2,201.7,0,302.5
	c0,11.5,0.9,23,2.2,34.3c0.4,3.3,3,6.8,5.6,9.3c21.6,20.6,44.9,39.7,64.8,61.7c18.9,20.9,27.6,64.2-14.2,88.4
	c16.4,22.9,32.9,45.8,49.3,68.7c3.5-19.4,5.9-38.9,10.5-57.9c17.4-71.8,51.4-134.4,105.8-185c29.8-27.7,63.7-49.2,104.2-57.8
	c65.8-13.9,122.1,9,159.5,66.8c6.5,10,11.5,20.9,17.4,31.8c5.6-18.2,7.6-132.8,1.8-156.3c-14.2,1.7-28.4,4.6-42.8,4.8
	c-24.7,0.4-49.4-0.1-74-1.8c-15.1-1-30.4-3.4-45-7.6c-30.9-8.9-42.2-29.3-29.8-59c9.1-21.8,21.2-43.3,36.3-61.4
	c71.4-85.6,158.1-151.6,260.3-196.6c26.6-11.7,53.6-22.9,83.3-24.3c4.5-0.2,9.1-0.2,13.6,0.3c13.7,1.7,22.4,14.2,19.7,27.8
	c-4.8,23.8-17.8,43.7-32,62.3c-21.7,28.4-45,55.5-67.7,83.2c-1.9,2.3-3.9,4.6-7.7,9c15.9-2.1,29.3-4.8,42.8-5.5
	c29-1.6,58.4-5.2,85.9,9.1c22.7,11.8,33.3,34.6,29.2,59.9c-6.3,39.3-25.2,73.2-45.2,106.2c-20.3,33.4-42.9,65.4-64.2,97.5
	c8.8-1.8,19.3-4.4,30-6.2c57.3-9.3,104.1,10.3,140.4,54.2c32.2,39,46.8,85.3,48.6,135.4c0.9,23.9-1.2,47.8-1.8,71.8
	c-0.1,2.3,0,4.7,1,8.1c31.9-47.3,76-76.9,130.8-91.8c-2-28.4-3.9-56.4-5.9-85.5c-19.1,1-37.1,1.9-55.1,3
	c-14.2,0.9-28.4,2.5-42.6,3.4c-16.2,0.9-22.9-8.9-15.5-23.2c16.6-31.9,33.8-63.6,50.7-95.3c20.7-38.8,41.4-77.6,62.2-116.4
	c9.7-18.2,19.4-18.7,31.1-1.4c42.4,62.6,84.7,125.3,127.1,187.9c9.9,14.7,5.1,23.9-12.5,25.7c-23.1,2.4-46.2,5.5-71,8.5
	c1.8,28.9,3.6,57.6,5.3,83.9c25.1,7.9,49.7,13.7,72.7,23.3c22.9,9.6,44.7,22.5,61.4,41.5c45,51,64.8,109.1,45.1,176.4
	c-4.8,16.4-13.9,31.5-20.9,47.2c-4.5,10.1-11.8,14.7-23,12.7c-3.3-0.6-6.8-0.1-9.4-0.1c-5.8,12.6-10.4,25.8-17.5,37.4
	c-15.8,25.7-37.4,45.7-63.9,60.4c-4.9,2.7-12.5,6.5-12.8,10.2c-0.8,10.1-1.1,21.9,3.3,30.5c11.6,22.3,26.1,43.2,39,64.8
	c15.6,26.2,30.8,52.7,46.2,79c6.9,11.9,6.3,16.7-3.6,26.6c-17.7,17.8-35.3,35.8-53.4,53.1c-5.7,5.5-6.3,10.4-5.4,18.1
	c2.7,22.6-6.3,41-24.9,53.7c-17.3,11.8-35.3,10.3-54.2-1.8c3.1,18.5,5,34.7,18.1,48.6c8.9,9.4,15.2,22.2,19.9,34.6
	c6.4,16.6-3.1,29.6-20.8,31.5c-27.5,3-54-3.9-80.4-9.6c-39.4-8.5-79.2-12.7-119.1-10.9c-39.7,1.7-77.2,14.9-113.7,30.3
	c-45.2,19-89.7,39.7-135.6,56.9c-44.3,16.6-91,24-138.2,27.9c-75.1,6.1-148.6-2.1-220.3-24.2c-41.4-12.8-80.6-31.4-118.2-53
	c-28.3-16.3-59.2-25.1-91.6-27.8c-15.3-1.3-30.9-0.2-44.5-0.2c3.6,29,8.2,55.2,9.6,81.6c1.1,19.6-5.1,38.4-18.1,54
	c-6.4,7.7-14.2,13.7-25.2,11.8c-11.4-2-18.1-9.3-21.4-20.1c-10.3-33.6-20.8-67.2-31.2-100.8c-0.4-1.3-1-2.5-1.9-4.6
	c-19.5,4.8-39,9.1-58.1,14.6c-27.5,7.9-54.6,17.5-82.3,24.8c-12.4,3.3-26.1,5.4-38.5,3.5c-20.1-3.2-28.5-19.5-25.7-39.6
	C818.2,2114.7,829.1,2090.8,845.3,2067.9L845.3,2067.9z M1134.2,1759.9c18.9,23.1,40.9,41.8,64.6,58.4c85,59.6,181.3,85.8,283.1,95
	c49.8,4.5,99.7,2.2,149.1-4.3c61.9-8.2,122.1-23.5,179.7-48c84.7-36.1,159.8-85.3,215.7-160.2c1.8-2.5,2.9-6.8,2.2-9.8
	c-11.2-51.2-31.9-98.4-62.4-141c-12-16.8-26.8-31.7-40.7-47.9c-31.6,57-70.6,96.7-121.2,120.8c-55.9,26.6-111.2,26-161.8-12.1
	c-46.1-34.7-67.1-84.2-74.8-140c-1.6-11.5-2.7-23.1-3.8-33.1c-14.8,21.5-29,44.4-45.3,65.6c-29.2,37.8-65.6,67-110.5,84.2
	c-46.6,17.9-92.4,17.4-135.8-9.2c-13.4-8.2-24.8-19.7-36.9-29.5C1229.9,1634.7,1198,1700.6,1134.2,1759.9L1134.2,1759.9z
	 M692.8,1545.8c-9.6-5.2-10.4-13.7-8.8-22.7c1.7-8.8,3.9-17.5,6.2-26.2c2.7-10.3,10-14.2,20.2-14.5c51.9-1.4,103.8-2,155.6-4.8
	c31.8-1.7,63-8.8,91.8-23.5c24.7-12.6,30.7-45.8,10.6-64.8c-11.2-10.6-24.9-18.4-37.6-27.4c-6.4-4.5-10.5-9.8-8.7-18.3
	c1.8-8.7,8.1-9.7,15.5-10.8c29.1-4.3,58.2-8.3,87-14.2c35.7-7.3,70-19.1,101.8-37.3c20.1-11.4,23.1-22.8,11.5-43
	c-1.5-2.7-3.2-5.4-5.3-7.6c-15.6-15.8-30.1-33.1-47.3-47c-82.2-66.1-175.9-85.7-277.8-62.4c-97.3,22.3-172.2,78.8-225.9,161.8
	c-58.3,90.2-77.9,189.3-54.2,294.6c22.5,100.3,79,177,170.4,225.9c17.1,9.2,35.7,15.5,55.6,24c-7.3-16.2-13-29.5-19.2-42.6
	c-1.2-2.6-4.2-6-6.5-6.1c-34.3-0.9-56.8-20.2-73.2-47.8c-19.3-32.6-25.1-68.1-18.7-105.3C642,1590.4,657.2,1561.1,692.8,1545.8
	L692.8,1545.8z M1329.5,1482.6c5.1-0.2,12.2,0.1,19-1c38.3-6.3,72.8-21.8,103.1-45.8c65.3-51.6,106.3-117.3,112.9-201.6
	c3.1-39.6-8.8-75.9-35.7-105.2c-30.2-32.9-69.3-42.2-112.3-32.8c-56.3,12.2-96.9,48-130.7,92.2c-36.4,47.6-58.1,101.9-67.4,161
	c-2.6,16.3-5.7,34.1-1.8,49.5C1230.3,1452.4,1272.3,1482.7,1329.5,1482.6L1329.5,1482.6z M1590.6,1424.6c0,7.3-0.9,14.8,0.2,21.9
	c1.9,11.8,2.8,24.7,8.1,35c10.4,20.1,27.3,34.9,48,44.5c37.9,17.6,75.7,13.4,112.4-3.1c53.8-24,91.5-65.3,119-116.3
	c30.9-57.3,45.7-118.2,32.1-183.1c-3.9-18.8-9.6-40.3-21.9-53.6c-29.5-31.7-68.6-41.7-111.4-31.9c-52.5,12-91,44.5-121.7,86.7
	C1612.2,1284.1,1590.9,1351.1,1590.6,1424.6L1590.6,1424.6z M1608.4,1248.9c1.4-2.2,2.7-4.6,4.2-6.7c16.1-21.7,31.6-43.8,48.6-64.8
	c15.3-18.8,33-35.6,48.3-54.3c32.2-39.6,64.9-79,87.8-125c12.9-25.9,24.9-52.4,34.9-79.5c6.9-18.7,1.3-35.2-11.3-40.5
	c-10.7-4.5-22.3-8.2-33.8-9c-32.1-2.1-63.9,1.9-95.2,9.3c-20.4,4.8-40.7,10.6-61.1,15.6c-7.6,1.9-15.1,1.1-17.4-8
	c-2.3-8.7,1.9-14,10.8-15.5c1.3-0.2,2.6-1.2,3.9-1.4c16.9-2,30.4-10.6,42.2-22.2c32.9-32.2,61.5-68,87.3-106
	c10-14.7,18.2-30.5,27.2-45.8c-0.8-0.8-1.7-1.6-2.5-2.4c-5.1,0.5-10.3,0.5-15.3,1.5c-37.6,7.9-72.5,23-105.9,41.2
	c-78.2,42.5-147.8,96.4-205.1,164.9c-14,16.8-25.1,36.5-34.9,56.1c-8.3,16.4-4.3,23.1,13.5,27.7c13,3.3,26.5,4.6,39.8,6.7
	c31.6,5,63.4,5.8,94.5-1.2c49.8-11.1,99.1-24.6,148.5-37.3c11.3-2.9,18.5-1.2,21.3,6.5s-1.8,14.9-12.5,18.4
	c-16.4,5.3-32.9,10.6-49.5,15.1c-21.5,5.8-43.2,10.9-64.8,16.3C1620.5,1089.1,1613.9,1168.8,1608.4,1248.9L1608.4,1248.9z
	 M2110.3,1505c-17.7,14.4-34.9,28.3-51.9,42.3c-5.3,4.3-10.3,5.8-15.6,0.5c-5.4-5.4-3-10.3,0.9-15.5c15.9-21.1,35.6-37.9,58.1-51.4
	c13.2-7.9,22.1-5.1,30.3,8.2c6.8,10.9,14.1,21.4,21.3,31.9c3.8,5.6,8.7,6.4,14.2,2.4c10.9-7.9,22.2-15.5,32.6-24.1
	c22-18.4,26.9-19,45.9,3.8c17.8,21.3,58.1,59,63.1,55.2c7.4-1.1,20.3-43.2,23.6-67c5.4-39.4-3.9-76.1-25.9-107.4
	c-22.6-32.2-52.9-55.9-93-67.3c-46.8-13.3-92.3-11.2-136.6,5.2c-32.9,12.2-60.1,34.2-80.4,64c-19.1,28-31.1,58.1-30.4,92.2
	c0.2,12.3,1.4,25.3,6,36.4c5,12.1,14.5,22.4,22.2,33.4c18.6,26.9,33.1,55.9,45.1,86.3c2.6,6.6,8.7,12,14,17.1
	c4.2,4,9.4,7.1,14.5,9.9c18.7,10.2,38.3,16.9,59.8,15.2c0-7.8,0.4-14.4-0.1-20.9c-2.5-33.6-4.5-67.3-8.3-100.8
	C2118,1538.4,2122,1520.4,2110.3,1505L2110.3,1505z M821.8,1509.5c1.4,14.3,3.8,29.2,3.9,44c0.1,9.1,4.4,12.3,11.5,15.7
	c37.8,18.2,59.9,60,54.7,101.2c-3.3,26.4-14.3,49.6-27.8,72.1c-2.3,3.9-3.9,10.1-2.5,14.1c7.3,21.8,15.4,43.3,23.6,64.8
	c3.6,9.5,8.7,13.1,20.9,11c43.2-7.2,85-18.4,125-36.4c6.5-2.9,8.9-6.8,9-14.1c1.3-138.4,3-276.9,4.6-415.3c0.1-8.2,0-16.4,0-25
	c-24.7,5.4-47.6,10.3-71.5,15.5c1.9,1.5,2.7,2.1,3.5,2.7c38,31.3,41,79.8,5.5,109.6c-18.9,15.8-42.8,22.8-66.5,27.1
	C885.2,1502,854.5,1505.1,821.8,1509.5L821.8,1509.5z M1542.3,2198c3.8,0,6.8,0.1,9.8,0c38.9-1.7,77.5-6.2,115.3-15.6
	c75-18.5,144.4-49.1,204.9-98c51-41.2,96.1-87.4,123.3-148.4c10.5-23.5,19.9-47.4,29.8-71.1c-49.3,26.5-97.9,50.7-150.2,66.1
	c-20.3,6-35.1,15.9-41.8,36.8c-2.4,7.5-6.8,14.3-10.8,21.2c-14.8,25.4-29.1,51.2-44.9,75.9c-8.2,12.9-20.6,15.9-33.7,8.1
	c-10.8-6.4-20.9-15.2-28.8-24.9c-11.7-14.4-21.2-30.6-31.1-45.1c-24.4,2-48.4,3.9-72.6,5.9c10.7,20.1,21.7,39.7,31.6,59.8
	c8.8,18,1.5,28.4-18.7,28.8c-18.8,0.4-37.6,1.1-56.4,2.3c-2.4,0.1-6.2,3.2-6.7,5.4C1554.9,2135.8,1548.7,2166.3,1542.3,2198
	L1542.3,2198z M1071.4,1334.1c-1.9,147.8-3.8,294.7-5.8,442.8c2.4-1.2,4.1-1.6,5.3-2.6c22-18.1,45.6-34.5,65.4-54.6
	c40.8-41.2,63.2-92.2,70.7-149.6c6.6-50.2-5.6-98-22.7-144.3c-14.4-38.9-37.4-73.4-65.6-104.2c-2-2.2-6.3-4.6-8.3-3.8
	C1096.8,1323,1083.3,1329.1,1071.4,1334.1L1071.4,1334.1z M1077.2,2236.9c2.3-2.9,4.2-4.8,5.5-7c11.3-19.6,10.5-40.9,7-61.8
	c-8.4-49.6-27.4-95.8-58-135.1c-29.8-38.4-63.9-73.6-97.6-108.7c-28.8-29.9-56.9-60.4-75.4-97.7c-11.8-23.9-19.3-49.9-27.9-75.3
	c-1.3-4,1-10.1,3.3-14.3c7.8-14.1,18.2-27.1,24.5-41.8c18.6-43.9,3.3-87.8-36.8-105.4c-15.8-6.9-20.6-17.2-20.7-33
	c0-15.9-1.7-31.8-2.7-47.6h-84.2c-2.6,11.5-5.1,22.3-7.6,33.3c27.6-0.1,49.5,10.4,66.6,31.2c24.3,29.6,33.7,63.9,32.3,101.7
	c-1.4,39.9-14.3,73.9-50,96.8c0.5,1.2,1,2.4,1.5,3.6c27.5,71.8,80.2,124.2,134.4,175.6c29.8,28.3,60.1,56,89.7,84.4
	c37.4,36,61.2,80.2,75.6,129.7C1063.4,2188.9,1070.1,2212.2,1077.2,2236.9L1077.2,2236.9z M1067.3,1849.4c0.7,4.3,1.5,8.7,2,13.1
	c1.3,11.3,6.3,19.1,17,24.8c26.5,14.2,42,36.3,45.5,66.7c0.4,3.3,4.3,6.9,7.4,9.1c10.3,7.4,22.2,13.1,31.4,21.5
	c19.9,18.2,29.6,42.4,34.6,68.3c5.3,28.1,21.2,49,44.2,63.8c54.4,34.8,113.8,58.1,177.2,70.8c15.2,3,30.5,4.8,46.4,7.3
	c-2.5-30-4.8-58.2-7.3-88.7c-16,0-32,0.7-47.9-0.2c-11.7-0.7-23.5-2.5-34.7-5.9c-13.1-3.9-17.6-14.7-12.3-27.1
	c3.1-7.3,7-14.4,11.3-21c11.2-16.9,22.8-33.6,34.5-50.5c-19.4-6.6-38.1-12.5-56.4-19.3c-6.1-2.3-9.1-0.8-13,3.8
	c-16.4,19.8-33,39.5-50.1,58.8c-14.8,16.7-25.3,15.7-38.5-2.5c-21.1-29.1-35.9-61.6-49-94.8c-5.3-13.5-11.3-24.2-26.3-28.3
	c-6.8-1.9-13-6.4-19.2-10.2C1132.1,1889.3,1100,1869.5,1067.3,1849.4L1067.3,1849.4z M1055.3,834.9c-8.3,6.7-20.2,15.2-30.8,25.1
	c-45.3,42.8-91,85.2-134.7,129.5c-16.8,17-28.8,38.8-43.2,58.3c-5.2,7-5.5,12.4,1.8,18.4c3.6,2.9,6.2,7.6,8,12
	c2.8,6.8,7,8.7,14.2,8.4c48.4-1.8,95.4,5.9,140.5,23.5c14.6,5.7,28.6,12.8,44.2,19.9L1055.3,834.9L1055.3,834.9z M1755.9,2050.6
	c1.8-2.2,2.9-3.1,3.6-4.3c19-34.1,38.7-67.9,56.6-102.6c8.4-16.4,18.8-27.4,37.1-32.8c61.7-18.2,119.2-46.1,173.6-80
	c18.7-11.7,36-26,52.4-40.8c14.2-12.8,13.6-14.2,1-28.8c-12-13.8-13.6-28.2-5.9-44.2c2.3-4.8,4.4-9.8,6.9-15.4
	c-8.2-4.3-15.5-8.1-21.1-11c-2.5,7.3-3.2,15-7.2,19.9c-14.9,18.4-29.9,36.8-46.5,53.5c-44.5,44.7-96.3,79.3-153.1,106.4
	c-64.6,30.8-132.4,51.6-203.3,61.6c-24.4,3.4-48.8,6-73.9,9.1c6.4,13.3,12.5,26.4,19.2,39.3c1,1.9,4.3,3.8,6.4,3.7
	c17.4-0.7,35.1-0.1,52-3.2c28.8-5.3,57.2-12.9,85.7-19.9c8.4-2.1,15.4-1.7,18.7,7.5c2.7,7.7-2,14.8-11.6,17.7
	c-11.3,3.5-22.7,6.6-34.5,10.1C1724.8,2016.6,1735.5,2037.4,1755.9,2050.6L1755.9,2050.6z M780.3,935.7
	c44.1,59.5,22.5,113.5-8.4,167c19.8-4.6,39.8-9.1,61.2-14.1c-4.7-5.6-9-11.2-13.9-16.4c-5.8-6.3-7.4-12.9-3.6-20.8
	c12.8-26.8,28.3-51.8,49-73.2c25.5-26.2,51.4-52,77.5-77.6c18.2-17.8,36.5-35.5,55.6-52.3c27.6-24.3,51-52.2,71.2-82.8
	c19-28.8,30.3-61.3,39.5-94.2c4.1-14.5,5.6-30,6-45.1c0.2-5.5-0.8-16.9-9.6-16.9c-5.4-1.2-8.3,7.9-10.6,12.8
	c-10.2,22.3-20,44.8-29.2,67.5c-27,65.9-70.2,117.2-133.6,151c-33.8,18.1-67.8,36.1-100.5,56.1C812.6,907.9,796.5,923,780.3,935.7
	L780.3,935.7z M1615.4,2071c-3.6-7-6.2-12.2-8.9-17.4c-11.9-22.2-24.2-44.3-35.9-66.6c-6.4-12.2-12.1-24.8-17.9-37.4
	c-3-6.5-7.7-8.9-14.8-8.8c-16.4,0.1-32.7-1-49.1-0.7c-3.1,0.1-7.2,3.2-9.1,6.1c-18.6,29.6-36.8,59.4-55.3,89.1
	c-8.6,13.7-17.7,27-27.4,41.8c5.2,0.8,8.6,1.6,11.9,1.8c21.9,1.2,43.8,1.4,65.6,3.7c16.2,1.7,17.5,5.2,18.4,21.7
	c1.8,30.8,4.3,61.4,6.6,92.4c6.2,0.6,10.3,1,14.8,1.5c1.1-2.9,2.3-5.4,2.8-8.1c6.4-32.1,12.8-64.3,19-96.4
	c2.7-13.7,7.5-18.4,21.3-19.3C1576.2,2073.2,1595,2072.2,1615.4,2071L1615.4,2071z M1064.3,1809.6c4.7,4.1,8.4,7.8,12.5,11
	c42.3,32.8,88,60,136.8,82c8.4,3.8,12.8,9,15.6,17.8c5.2,16.4,11.1,32.6,18.4,48.2c9.3,19.8,20.1,38.9,31.3,60.3
	c18.3-21.1,34.6-39.9,51.5-59.4c-4.2-1.7-6.8-2.6-9.3-3.7c-8.3-3.6-12.8-12.6-9.6-19.1c3.4-6.9,11.1-8.4,19.9-3.9
	c0.9,0.5,1.6,1.4,2.6,1.8c30.5,10.6,61,21.3,91.6,31.7c2.2,0.7,6.4,0.6,7.2-0.7c8.2-12.4,15.9-25.1,24.2-38.5
	c-104.5-11.6-242.6-49.3-344.4-158.8C1096.7,1788.6,1080.9,1798.8,1064.3,1809.6L1064.3,1809.6z M1227.6,1471.4
	c0.7,3.9,0.7,7.4,2.1,10.2c7.2,14.5,13.3,29.8,22.6,42.9c18.8,26.6,45,43.4,77.7,47.5c44.6,5.6,83.2-10.6,118.2-36.5
	c41.4-30.6,71.1-71,93.5-116.9c14.5-29.8,24.7-61.2,29.4-94.2c-2,2.8-3.6,5.8-5.1,8.9c-32.7,70.2-82.6,124.2-153.7,156.1
	C1348.6,1518,1285.8,1520.4,1227.6,1471.4L1227.6,1471.4z M1617.5,1542.1c2.7,4.4,4.9,8.3,7.3,12c34.8,53.3,91.2,72.5,151.2,51.8
	c42.4-14.6,74.5-42.6,100.9-77.5c43.9-58.1,65.9-124.2,68.3-196.8c0.5-15.8-0.9-31.6-1.4-47.4c-4.8,20-6.9,40-12.1,59.1
	c-23.2,84.2-68.9,152.4-146.2,196.2c-37.9,21.5-78.8,30.7-122,19.9C1647.9,1555.5,1633.4,1548.2,1617.5,1542.1L1617.5,1542.1z
	 M2221.4,1163.5c-37.2-55.1-73.9-109.3-111.3-164.8c-33.2,62.2-65.4,122.4-98.2,183.8c3.6,0,5.6,0.1,7.6,0
	c25.7-1.8,51.4-3.6,77.1-5.6c14.8-1.2,21,3.7,22,17.8c0.7,10.8,1.4,21.5,2.2,32.3c1.4,18.6,3,37.2,4.6,56.6c7.9-1,14.7-1.8,22.6-2.8
	c-0.5-6.4-0.9-12.2-1.3-18c-1.7-24.3-3.7-48.6-5.1-72.9c-0.7-13,3.9-18.1,16.2-19.6C2178.3,1168,2199,1165.9,2221.4,1163.5
	L2221.4,1163.5z M2163.4,2104.2c0.3-4.2,0.6-5,0.4-5.5c-0.8-1.9-1.7-3.8-2.8-5.6c-11.6-20.2-26.6-37.5-45.4-51.1
	c-29.9-21.7-60.4-40.1-100.2-39.2c-31.2,0.7-57.1,30.4-62,52.6c-2.5,11.4,2.3,19.4,14,21.2c17.8,2.7,35.8,4.2,53.6,6.5
	c24.4,3.1,48.8,6.1,73.1,9.7C2117.1,2096.1,2139.9,2100.3,2163.4,2104.2L2163.4,2104.2z M780.1,1672.4c-1.1-29.5-7.3-56.1-24.7-79
	c-8.4-11.1-18.5-20.7-33-23.2c-24.4-4.2-39.6,8.7-50.2,28.4c-12.3,22.8-14.8,47.6-11,72.7c4.1,27.3,14.3,51.9,36.2,70.3
	c17.2,14.5,40.2,13.9,56.4-1.5C773.7,1721.2,777.8,1696.6,780.1,1672.4z M777.9,1004.2c0-5.2,0.5-10.5-0.2-15.6
	c-0.5-4.4-2.4-8.6-3.7-12.9c-4.8-16.3-23.8-29.4-42.5-23.5c-21.8,6.8-38.8,19.3-52.1,37.4c-22.2,30.1-35.7,62.8-31.1,101.3
	c3.8,32.6,28.9,47.8,58,32.8C754.3,1098.7,773.6,1055.6,777.9,1004.2L777.9,1004.2z M931.2,2021.5c-10.6,8.6-20.9,16.2-30.5,24.7
	c-25.6,22.6-46.6,48.7-56.3,82c-2.4,8.2-1.4,17.4-2,26.2c5.8,3.6,19.2,0.6,28-1.8c27.6-7.6,54.7-16.8,82.2-24.8
	c17.8-5.1,35.9-9,55.2-13.8C987.3,2078.3,960.1,2050.2,931.2,2021.5L931.2,2021.5z M1177.5,2086c6.9-33.8-5-62.1-27.4-84.6
	c-23.5-23.7-55.9-21.6-87.3-23.2c2.2,29.4-1.8,58.1,16.7,82.6c3.7,4.9,6.6,10.8,8.3,16.8c3.7,12.6,9.9,16.8,23.9,14.4
	C1133.1,2088.3,1155.1,2087.8,1177.5,2086z M2145.7,1548.5c9.8,123.3,19.7,246.9,29.6,370.8c6.6-0.8,12.2-1.5,17.8-2.2
	c-8.1-122.8-16.2-245-24.2-365.1C2160.1,1550.6,2153.1,1549.6,2145.7,1548.5L2145.7,1548.5z M2202,1658.3
	c6.5-4.4,11.7-8.3,17.2-11.5c27.2-16.1,45.2-39.2,52.3-70.1c1.4-5.8,1.8-14.5-1.4-18.4c-13.9-16.6-29.4-31.9-44.4-47.6
	c-7.3,6.2-12.4,11.6-18.5,15.5c-8.8,5.6-13.7,10.2-12.2,23.2C2199.1,1584.9,2199.8,1620.8,2202,1658.3L2202,1658.3z M2268.6,1872.2
	c-18.8-32.3-37.8-64.9-56.8-97.5c-0.6,0.3-1.3,0.5-1.9,0.8c3.2,48.2,6.4,96.5,9.6,146C2236.7,1904.3,2252.6,1888.4,2268.6,1872.2
	L2268.6,1872.2z M1037.5,1893.3c-29.6-3-56.4,2.4-82.4,13.5c13.2,14,26,26.7,38,40.3c6.7,7.6,12.7,13.1,23.7,8.5
	c4.6-1.9,10.3-1.2,15.2-2.6c2.2-0.7,5.2-3.7,5.3-5.7C1037.7,1929.6,1037.5,1911.9,1037.5,1893.3L1037.5,1893.3z M2138.5,1787.7
	c-0.5-0.2-0.9-0.4-1.4-0.6c-13.3,34.2-26.6,68.4-40.5,104.2c17.2,11.8,34.3,23.5,53.1,36.4
	C2145.8,1879.2,2142.2,1833.4,2138.5,1787.7L2138.5,1787.7z M2120.6,2011.9c-0.6-2.4-0.8-3.8-1.3-4.9
	c-13.1-29.5-34.1-52.2-61.5-68.7c-7.1-4.3-16.1-5.9-24.3-7.9c-2.1-0.5-6.2,1.5-7.3,3.5c-7.2,12.9-13.7,26.2-20.8,39.9
	C2049.7,1968.4,2084.2,1991.1,2120.6,2011.9L2120.6,2011.9z M920.5,1870c1.4,1.9,2.4,3.3,3.4,4.7c9.3,12.8,9.1,12.2,23.3,7.3
	c14.3-4.9,28.8-9.7,43.7-12.2c15.2-2.7,31-2.6,48.6-3.9c-2.3-4.8-3.3-11-6.8-13.1c-7.7-4.6-16.5-9.4-25.1-10.1
	C975.3,1840.2,948.1,1855.4,920.5,1870L920.5,1870z M911.2,2003.3c-12.6-10.8-24.1-20.8-36.3-31.3c-12.4,14.2-22.3,30-27.5,48.1
	c-1.8,6.3-4.8,21-0.3,20.9C875.4,2038.5,890.5,2017.7,911.2,2003.3L911.2,2003.3z M2054.2,1854.8c-5.5,17.8-10.5,34.4-15.7,51.2
	c37.8,5.7,61.7,31.2,86.5,56.1c-2.2-6.6-5.6-12.3-8.8-18.2c-6.5-12-17.9-18.8-28.2-26.7c-22.8-17.3-23.2-19-11.8-44.8
	c0.2-0.5-0.1-1.3-0.4-3.1C2069.1,1864.9,2062,1860,2054.2,1854.8L2054.2,1854.8z M2162.2,1973.3c-0.1,13.8,7.6,23.7,18.1,23.5
	c13.2-0.3,25.8-15.3,25.7-30.5c-0.1-12.6-7.8-21.3-19-21.6C2170.7,1944.4,2162.3,1954.1,2162.2,1973.3L2162.2,1973.3z M2109,1700.4
	c-4.2,9.6-8.8,19.2-12.6,29.1c-1.2,3.2-1.8,8.1-0.2,10.6c6,9.3,13.1,17.9,20.2,27.3c5.1-12.5,10.9-23.6,13.9-35.4
	c2.4-9.3,2.6-19.8,0.8-29.2c-0.4-2.1-13-2-20-2.8C2110.5,1699.9,2109.8,1700.2,2109,1700.4L2109,1700.4z M1106.6,1954.2
	c1.2-19.4-20.4-43.2-42.7-49.9v46.1C1078.5,1951.7,1092.2,1952.9,1106.6,1954.2z M2086.3,1846.4c4.8-12.5,9.2-24.3,13.7-36
	c-0.6-0.2-1.2-0.5-1.7-0.7c-9.7,8.5-19.5,17.1-29.5,25.9C2074.3,1839,2079.8,1842.4,2086.3,1846.4z"/>
<linearGradient id="SVGID_00000158707756528757427880000016534316618620035513_" gradientUnits="userSpaceOnUse" x1="1283.2965" y1="-969.889" x2="1494.0361" y2="-759.1494" gradientTransform="matrix(1 0 0 1 0 2156)">
	<stop  offset="0" style="stop-color:#564341"/>
	<stop  offset="0.67" style="stop-color:#5D3E3D"/>
	<stop  offset="0.75" style="stop-color:#654341"/>
	<stop  offset="0.88" style="stop-color:#7D534C"/>
	<stop  offset="0.91" style="stop-color:#855850"/>
</linearGradient>
<path style="fill:url(#SVGID_00000158707756528757427880000016534316618620035513_);" d="M1329.5,1482.6
	c-57.2,0.1-99.2-30.2-112.9-83.8c-3.9-15.4-0.8-33.2,1.8-49.5c9.3-59.1,31.1-113.4,67.4-161c33.7-44.2,74.3-80,130.7-92.2
	c43.1-9.4,82.1-0.1,112.3,32.8c26.9,29.3,38.8,65.6,35.7,105.2c-6.6,84.3-47.6,150-112.9,201.6c-30.3,24-64.8,39.4-103.1,45.8
	C1341.7,1482.7,1334.6,1482.3,1329.5,1482.6L1329.5,1482.6z"/>
<linearGradient id="SVGID_00000104679106344759321590000003709703946289075642_" gradientUnits="userSpaceOnUse" x1="1644.9437" y1="-926.0192" x2="1859.2324" y2="-711.7306" gradientTransform="matrix(1 0 0 1 0 2156)">
	<stop  offset="0" style="stop-color:#564341"/>
	<stop  offset="0.67" style="stop-color:#5D3E3D"/>
	<stop  offset="0.75" style="stop-color:#654341"/>
	<stop  offset="0.88" style="stop-color:#7D534C"/>
	<stop  offset="0.91" style="stop-color:#855850"/>
</linearGradient>
<path style="fill:url(#SVGID_00000104679106344759321590000003709703946289075642_);" d="M1590.6,1424.6
	c0.4-73.5,21.6-140.5,64.8-199.9c30.7-42.2,69.2-74.7,121.7-86.7c42.8-9.8,81.9,0.2,111.4,31.9c12.4,13.3,18,34.8,21.9,53.6
	c13.6,64.9-1.2,125.8-32.1,183.1c-27.5,50.9-65.2,92.3-119,116.3c-36.8,16.4-74.6,20.6-112.4,3.1c-20.7-9.6-37.6-24.4-48-44.5
	c-5.3-10.3-6.2-23.1-8.1-35C1589.7,1439.4,1590.6,1431.9,1590.6,1424.6L1590.6,1424.6z"/>
<linearGradient id="SVGID_00000168089891626035920800000012633716962750041508_" gradientUnits="userSpaceOnUse" x1="1626.1697" y1="-1463.5" x2="1626.1697" y2="-907.1" gradientTransform="matrix(1 0 0 1 0 2156)">
	<stop  offset="3.000000e-02" style="stop-color:#FFE668"/>
	<stop  offset="0.21" style="stop-color:#FEE267"/>
	<stop  offset="0.35" style="stop-color:#FCD866"/>
	<stop  offset="0.44" style="stop-color:#FBCE65"/>
	<stop  offset="1" style="stop-color:#FDAD60"/>
</linearGradient>
<path style="fill:url(#SVGID_00000168089891626035920800000012633716962750041508_);" d="M1608.4,1248.9
	c5.5-80,12.1-159.8,3.6-240.5c21.6-5.4,43.3-10.5,64.8-16.3c16.7-4.5,33.1-9.8,49.5-15.1c10.7-3.5,15.3-10.7,12.5-18.4
	s-9.9-9.4-21.3-6.5c-49.4,12.7-98.7,26.2-148.5,37.3c-31,6.9-62.9,6.1-94.5,1.2c-13.3-2.1-26.8-3.3-39.8-6.7
	c-17.8-4.5-21.8-11.2-13.5-27.7c9.9-19.6,20.9-39.3,34.9-56.1c57.3-68.5,126.8-122.4,205.1-164.9c33.4-18.1,68.4-33.3,105.9-41.2
	c5-1,10.2-1,15.3-1.5c0.8,0.8,1.7,1.6,2.5,2.4c-9,15.3-17.2,31.2-27.2,45.8c-25.8,38-54.4,73.8-87.3,106
	c-11.9,11.6-25.3,20.2-42.2,22.2c-1.3,0.2-2.6,1.1-3.9,1.4c-8.9,1.5-13.1,6.8-10.8,15.5c2.4,9.1,9.8,9.9,17.4,8
	c20.4-5,40.7-10.8,61.1-15.6c31.3-7.4,63.1-11.4,95.2-9.3c11.4,0.8,23.1,4.5,33.8,9c12.6,5.3,18.2,21.7,11.3,40.5
	c-10,27.1-22,53.6-34.9,79.5c-22.9,46-55.6,85.5-87.8,125c-15.3,18.8-33,35.6-48.3,54.3c-17,20.9-32.5,43.1-48.6,64.8
	C1611.1,1244.3,1609.8,1246.7,1608.4,1248.9L1608.4,1248.9z"/>
<path class="st12" d="M1542.3,2198c6.5-31.7,12.6-62.2,19.2-92.6c0.5-2.3,4.3-5.3,6.7-5.4c18.8-1.1,37.6-1.9,56.4-2.3
	c20.2-0.4,27.5-10.8,18.7-28.8c-9.9-20.1-20.9-39.7-31.6-59.8c24.2-2,48.2-3.9,72.6-5.9c9.8,14.5,19.3,30.7,31.1,45.1
	c7.9,9.7,18,18.5,28.8,24.9c13.1,7.8,25.4,4.8,33.7-8.1c15.8-24.8,30.1-50.5,44.9-75.9c4-6.9,8.4-13.8,10.8-21.2
	c6.6-20.9,21.4-30.8,41.8-36.8c52.3-15.5,100.9-39.6,150.2-66.1c-9.9,23.7-19.3,47.7-29.8,71.1c-27.2,60.9-72.3,107.2-123.3,148.4
	c-60.5,48.9-129.9,79.5-204.9,98c-37.8,9.3-76.4,13.9-115.3,15.6C1549.1,2198.2,1546.1,2198,1542.3,2198L1542.3,2198z"/>
<path class="st13" d="M1077.2,2236.9c-7.1-24.7-13.8-48.1-20.6-71.4c-14.4-49.5-38.2-93.7-75.6-129.7
	c-29.6-28.5-59.9-56.2-89.7-84.4c-54.1-51.4-106.9-103.8-134.4-175.6c-0.5-1.2-1-2.4-1.5-3.6c35.7-22.8,48.5-56.9,50-96.8
	c1.3-37.7-8.1-72.1-32.3-101.7c-17.1-20.8-39-31.3-66.6-31.2c2.5-10.9,4.9-21.8,7.6-33.3h84.2c1,15.8,2.6,31.7,2.7,47.6
	c0,15.8,4.9,26.1,20.7,33c40.1,17.6,55.4,61.5,36.8,105.4c-6.2,14.7-16.6,27.7-24.5,41.8c-2.3,4.2-4.7,10.3-3.3,14.3
	c8.6,25.4,16.1,51.4,27.9,75.3c18.5,37.3,46.6,67.8,75.4,97.7c33.8,35.1,67.8,70.3,97.6,108.7c30.6,39.4,49.6,85.5,58,135.1
	c3.5,20.9,4.3,42.2-7,61.8C1081.4,2232.1,1079.5,2234,1077.2,2236.9L1077.2,2236.9z"/>
<path class="st12" d="M1067.3,1849.4c32.8,20.2,64.8,39.9,96.9,59.6c6.2,3.8,12.4,8.3,19.2,10.2c15,4.2,21,14.8,26.3,28.3
	c13.1,33.2,27.9,65.7,49,94.8c13.2,18.2,23.7,19.2,38.5,2.5c17-19.3,33.7-39,50.1-58.8c3.9-4.7,6.9-6.1,13-3.8
	c18.3,6.8,37,12.7,56.4,19.3c-11.6,17-23.3,33.6-34.5,50.5c-4.4,6.6-8.2,13.7-11.3,21c-5.3,12.4-0.9,23.2,12.3,27.1
	c11.2,3.3,23,5.1,34.7,5.9c15.9,1,32,0.2,47.9,0.2c2.5,30.5,4.8,58.7,7.3,88.7c-15.9-2.4-31.3-4.2-46.4-7.3
	c-63.4-12.6-122.8-35.9-177.2-70.8c-23-14.7-38.9-35.7-44.2-63.8c-4.9-25.9-14.7-50.1-34.6-68.3c-9.3-8.5-21.1-14.1-31.4-21.5
	c-3.1-2.2-7-5.8-7.4-9.1c-3.5-30.4-19-52.6-45.5-66.7c-10.7-5.7-15.7-13.5-17-24.8C1068.8,1858,1067.9,1853.7,1067.3,1849.4
	L1067.3,1849.4z"/>
<path class="st14" d="M1755.9,2050.6c-20.4-13.3-31.1-34.1-43.9-54c11.9-3.4,23.2-6.6,34.5-10.1c9.6-3,14.3-10,11.6-17.7
	c-3.2-9.2-10.2-9.6-18.7-7.5c-28.5,7-56.9,14.6-85.7,19.9c-17,3.1-34.7,2.5-52,3.2c-2.2,0.1-5.5-1.8-6.4-3.7
	c-6.6-12.9-12.8-26-19.2-39.3c25.1-3.1,49.6-5.7,73.9-9.1c70.9-10,138.7-30.8,203.3-61.6c56.8-27.1,108.6-61.7,153.1-106.4
	c16.6-16.7,31.7-35.1,46.5-53.5c4-5,4.7-12.6,7.2-19.9c5.5,2.9,12.8,6.7,21.1,11c-2.5,5.6-4.6,10.5-6.9,15.4
	c-7.8,16.1-6.1,30.5,5.9,44.2c12.7,14.5,13.2,16-1,28.8c-16.4,14.8-33.7,29.1-52.4,40.8c-54.4,33.9-111.9,61.8-173.6,80
	c-18.2,5.4-28.6,16.4-37.1,32.8c-17.9,34.7-37.6,68.5-56.6,102.6C1758.8,2047.5,1757.7,2048.5,1755.9,2050.6L1755.9,2050.6z"/>
<path class="st13" d="M780.3,935.7c16.2-12.7,32.3-27.8,50.7-39.1c32.7-20,66.7-38,100.5-56.1c63.4-33.8,106.6-85.1,133.6-151
	c9.3-22.7,19.1-45.2,29.2-67.5c2.2-4.9,6.3-15.1,10.6-12.8c8.7,0,9.8,11.3,9.6,16.9c-0.4,15.1-1.9,30.6-6,45.1
	c-9.2,33-20.5,65.4-39.5,94.2c-20.2,30.6-43.6,58.5-71.2,82.8c-19.1,16.8-37.4,34.5-55.6,52.3c-26.1,25.6-52.1,51.4-77.5,77.6
	c-20.7,21.3-36.3,46.4-49,73.2c-3.7,7.9-2.2,14.6,3.6,20.8c4.8,5.2,9.2,10.9,13.9,16.4c-21.4,4.9-41.4,9.5-61.2,14.1
	C802.8,1049.2,824.5,995.2,780.3,935.7L780.3,935.7z"/>
<linearGradient id="SVGID_00000103235804819240370990000017056362741786540683_" gradientUnits="userSpaceOnUse" x1="1396.9801" y1="-86.9631" x2="1615.1803" y2="-86.9631" gradientTransform="matrix(1 0 0 1 0 2156)">
	<stop  offset="3.000000e-02" style="stop-color:#FDDA22"/>
	<stop  offset="0.15" style="stop-color:#FCD925"/>
	<stop  offset="0.24" style="stop-color:#FCD72F"/>
	<stop  offset="0.33" style="stop-color:#FCD43F"/>
	<stop  offset="0.41" style="stop-color:#FBD057"/>
	<stop  offset="0.44" style="stop-color:#FBCE65"/>
	<stop  offset="1" style="stop-color:#FDAD60"/>
</linearGradient>
<path style="fill:url(#SVGID_00000103235804819240370990000017056362741786540683_);" d="M1615.4,2071c-20.4,1.2-39.1,2.2-57.8,3.3
	c-13.8,0.9-18.7,5.6-21.3,19.3c-6.2,32.2-12.6,64.3-19,96.4c-0.5,2.6-1.8,5.1-2.8,8.1c-4.5-0.4-8.6-0.8-14.8-1.5
	c-2.2-31-4.8-61.7-6.6-92.4c-0.9-16.5-2.2-20-18.4-21.7c-21.8-2.2-43.7-2.5-65.6-3.7c-3.4-0.2-6.7-1-11.9-1.8
	c9.7-14.7,18.8-28.1,27.4-41.8c18.5-29.6,36.7-59.5,55.3-89.1c1.8-2.9,6-6.1,9.1-6.1c16.4-0.2,32.7,0.8,49.1,0.7
	c7.2,0,11.8,2.3,14.8,8.8c5.8,12.6,11.5,25.1,17.9,37.4c11.7,22.3,23.9,44.4,35.9,66.6C1609.2,2058.8,1611.8,2064.1,1615.4,2071
	L1615.4,2071z"/>
<path class="st14" d="M1064.3,1809.6c16.6-10.8,32.4-21,48.3-31.4c101.8,109.5,239.9,147.2,344.4,158.8c-8.3,13.3-16,26.1-24.2,38.5
	c-0.9,1.3-5.1,1.4-7.2,0.7c-30.6-10.4-61.1-21.1-91.6-31.7c-0.9-0.3-1.7-1.3-2.6-1.8c-8.8-4.5-16.5-3-19.9,3.9
	c-3.2,6.5,1.3,15.5,9.6,19.1c2.5,1.1,5.1,2,9.3,3.7c-16.9,19.5-33.2,38.3-51.5,59.4c-11.2-21.4-22.1-40.4-31.3-60.3
	c-7.2-15.5-13.2-31.8-18.4-48.2c-2.8-8.8-7.3-14-15.6-17.8c-48.7-22-94.4-49.2-136.8-82C1072.7,1817.4,1069,1813.8,1064.3,1809.6
	L1064.3,1809.6z"/>
<path class="st16" d="M1227.6,1471.4c58.2,49,121,46.6,184.7,18c71-31.8,120.9-85.9,153.7-156.1c1.4-3.1,3-6.1,5.1-8.9
	c-4.8,33-14.9,64.4-29.4,94.2c-22.3,45.9-52.1,86.3-93.5,116.9c-35,25.9-73.6,42.2-118.2,36.5c-32.7-4.1-58.8-20.9-77.7-47.5
	c-9.3-13.1-15.3-28.4-22.6-42.9C1228.3,1478.8,1228.3,1475.3,1227.6,1471.4L1227.6,1471.4z"/>
<path class="st16" d="M1617.5,1542.1c15.9,6.1,30.4,13.4,45.8,17.2c43.2,10.8,84.1,1.6,122-19.9c77.3-43.8,123-112,146.2-196.2
	c5.3-19.1,7.3-39.1,12.1-59.1c0.5,15.8,2,31.7,1.4,47.4c-2.4,72.6-24.4,138.7-68.3,196.8c-26.4,34.9-58.5,63-100.9,77.5
	c-60,20.6-116.3,1.4-151.2-51.8C1622.3,1550.4,1620.1,1546.5,1617.5,1542.1L1617.5,1542.1z"/>
<path class="st13" d="M2221.4,1163.5c-22.4,2.4-43.1,4.5-63.8,6.9c-12.4,1.4-16.9,6.5-16.2,19.6c1.3,24.3,3.3,48.6,5.1,72.9
	c0.4,5.8,0.8,11.6,1.3,18c-7.9,1-14.7,1.8-22.6,2.8c-1.6-19.4-3.1-38-4.6-56.6c-0.8-10.8-1.5-21.5-2.2-32.3
	c-0.9-14.2-7.2-19-22-17.8c-25.7,2.1-51.4,3.8-77.1,5.6c-2,0.1-4,0-7.6,0c32.8-61.4,65-121.7,98.2-183.8
	C2147.5,1054.2,2184.2,1108.4,2221.4,1163.5L2221.4,1163.5z M2099.4,1065.2c-0.2,0-0.4,0-0.6,0.1c2.9,26.6,5.9,53.1,8.6,79.7
	c0.9,8.7,4.1,15.2,13.8,14.6c9.7-0.5,12.6-7.3,11.8-16.1c-2.8-29-5.5-58.1-8.6-87.1c-0.8-7.7-5.1-13-13.7-12.6
	c-8.9,0.4-11.7,6.4-11.9,14.2C2098.5,1060.4,2099.1,1062.8,2099.4,1065.2L2099.4,1065.2z"/>
<path class="st13" d="M780.1,1672.4c-2.2,24.2-6.4,48.8-26.3,67.7c-16.2,15.4-39.2,16.1-56.4,1.5c-21.9-18.5-32.1-43.1-36.2-70.3
	c-3.8-25.1-1.3-50,11-72.7c10.6-19.7,25.8-32.6,50.2-28.4c14.5,2.5,24.6,12.1,33,23.2C772.8,1616.3,779,1642.9,780.1,1672.4
	L780.1,1672.4z M766.3,1662.9c0-18.7-8.1-34.3-19.8-47.9c-13.2-15.3-32.8-21.3-47.4-15c-7.5,3.2-11.6,8.9-9,17.5s9.3,8.8,16,6.2
	c7.7-3.1,13.8-0.7,19,4.5c9.6,9.5,15.9,20.8,16.4,34.8c0.7,21.9-9.1,33.1-30.7,37.1c-4.4,0.8-10.2,6.5-11.2,10.9
	c-1.8,8.1,4.9,12.9,12.2,14c13.7,2,26.2-1.8,36-11.8C761.2,1699.2,766.3,1681.9,766.3,1662.9L766.3,1662.9z"/>
<path class="st13" d="M777.9,1004.2c-4.3,51.4-23.6,94.6-71.6,119.4c-29.1,15.1-54.2-0.2-58-32.8c-4.5-38.4,8.9-71.2,31.1-101.3
	c13.4-18.1,30.3-30.6,52.1-37.4c18.7-5.8,37.7,7.2,42.5,23.5c1.3,4.3,3.1,8.5,3.7,12.9C778.4,993.7,777.9,998.9,777.9,1004.2
	L777.9,1004.2z M751,1025.9c0-3.8,0.2-7.7,0-11.5c-1.5-19.8-15.9-35.2-31.7-32.4c-4.5,0.8-10.3,5.9-11.8,10.3
	c-2.3,7,2.9,10.9,10,12.8c3.2,0.9,7.2,4.3,8,7.4c4.9,19.3-0.2,36.5-13.5,50.9c-8.2,8.9-15.7,8.5-23.9,0c-5.8-6-11.9-8.7-19.2-3
	c-5.7,4.4-5.4,13.7,0.2,20.5c14.1,17.4,33.2,20.3,51.6,7.5C742.3,1073.3,751.2,1051.7,751,1025.9L751,1025.9z"/>
<linearGradient id="SVGID_00000109709366573796735850000004411840123331109045_" gradientUnits="userSpaceOnUse" x1="841.239" y1="-66.9945" x2="1007.9" y2="-66.9945" gradientTransform="matrix(1 0 0 1 0 2156)">
	<stop  offset="0" style="stop-color:#F4A15C"/>
	<stop  offset="0.42" style="stop-color:#F39464"/>
	<stop  offset="1" style="stop-color:#F2876D"/>
	<stop  offset="1" style="stop-color:#F29364"/>
	<stop  offset="1" style="stop-color:#F4A25A"/>
	<stop  offset="1" style="stop-color:#FBCE65"/>
</linearGradient>
<path style="fill:url(#SVGID_00000109709366573796735850000004411840123331109045_);" d="M931.2,2021.5
	c28.9,28.7,56.1,56.8,76.7,92.5c-19.3,4.8-37.4,8.7-55.2,13.8c-27.5,7.9-54.6,17.2-82.2,24.8c-8.8,2.4-22.2,6.4-28,1.8
	c-2.8-6-0.4-18,2-26.2c9.7-33.4,30.7-59.4,56.3-82C910.3,2037.7,920.6,2030,931.2,2021.5L931.2,2021.5z"/>
<path class="st13" d="M2145.7,1548.5c7.4,1.1,14.4,2.1,23.2,3.4c8,120.1,16.1,242.3,24.2,365.1c-5.6,0.7-11.2,1.4-17.8,2.2
	C2165.4,1795.4,2155.5,1671.8,2145.7,1548.5L2145.7,1548.5z"/>
<linearGradient id="SVGID_00000046318300984001199420000008865543990330478994_" gradientUnits="userSpaceOnUse" x1="2194.7322" y1="-571.5" x2="2272.5789" y2="-571.5" gradientTransform="matrix(1 0 0 1 0 2156)">
	<stop  offset="3.000000e-02" style="stop-color:#FFBC9C"/>
	<stop  offset="0.33" style="stop-color:#FEBC98"/>
	<stop  offset="0.56" style="stop-color:#FDBF8E"/>
	<stop  offset="0.78" style="stop-color:#FCC47E"/>
	<stop  offset="0.96" style="stop-color:#FBCA69"/>
</linearGradient>
<path style="fill:url(#SVGID_00000046318300984001199420000008865543990330478994_);" d="M2202,1658.3c-2.2-37.5-2.9-73.3-7-108.9
	c-1.5-13,3.4-17.6,12.2-23.2c6.1-3.9,11.2-9.2,18.5-15.5c14.9,15.7,30.4,31,44.4,47.6c3.3,3.9,2.8,12.5,1.4,18.4
	c-7.1,30.9-25.1,53.9-52.3,70.1C2213.6,1650,2208.5,1653.9,2202,1658.3L2202,1658.3z"/>
<path class="st13" d="M2268.6,1872.2c-16.1,16.2-31.9,32.1-49,49.3c-3.3-49.5-6.5-97.7-9.6-146c0.6-0.3,1.3-0.5,1.9-0.8
	C2230.8,1807.3,2249.8,1839.9,2268.6,1872.2L2268.6,1872.2z"/>
<path class="st13" d="M2138.5,1787.7c3.6,45.8,7.3,91.5,11.1,140c-18.7-12.9-35.9-24.6-53.1-36.4c13.9-35.8,27.2-70,40.5-104.2
	C2137.6,1787.2,2138.1,1787.5,2138.5,1787.7L2138.5,1787.7z"/>
<linearGradient id="SVGID_00000012466767488450509380000013113429613265503911_" gradientUnits="userSpaceOnUse" x1="844.7411" y1="-149.4998" x2="911.2" y2="-149.4998" gradientTransform="matrix(1 0 0 1 0 2156)">
	<stop  offset="0" style="stop-color:#F4A15C"/>
	<stop  offset="0.42" style="stop-color:#F39464"/>
	<stop  offset="1" style="stop-color:#F2876D"/>
	<stop  offset="1" style="stop-color:#F29364"/>
	<stop  offset="1" style="stop-color:#F4A25A"/>
	<stop  offset="1" style="stop-color:#FBCE65"/>
</linearGradient>
<path style="fill:url(#SVGID_00000012466767488450509380000013113429613265503911_);" d="M911.2,2003.3
	c-20.8,14.3-35.8,35.1-64.1,37.7c-4.5,0.1-1.5-14.5,0.3-20.9c5.3-18.1,15.1-33.9,27.5-48.1C887.1,1982.6,898.7,1992.5,911.2,2003.3
	L911.2,2003.3z"/>
<path class="st13" d="M2162.2,1973.3c0.1-19.2,8.5-28.9,24.8-28.6c11.2,0.2,18.9,8.9,19,21.6c0.2,15.2-12.4,30.2-25.7,30.5
	C2169.7,1997.1,2162.1,1987.2,2162.2,1973.3L2162.2,1973.3z"/>
<path class="st20" d="M1106.6,1954.2c-14.4-1.3-28.1-2.5-42.7-3.8v-46.1C1086.3,1911,1107.8,1934.8,1106.6,1954.2z"/>
<path class="st21" d="M2099.4,1065.2c-0.3-2.4-0.8-4.8-0.7-7.2c0.3-7.8,3.1-13.7,11.9-14.2c8.7-0.4,12.9,4.9,13.7,12.6
	c3.1,29,5.8,58,8.6,87.1c0.9,8.8-2,15.6-11.8,16.1c-9.7,0.5-12.9-5.9-13.8-14.6c-2.7-26.6-5.7-53.1-8.6-79.7
	C2099,1065.3,2099.2,1065.2,2099.4,1065.2L2099.4,1065.2z"/>
<path class="st21" d="M766.3,1662.9c0,19-5.1,36.3-18.7,50.2c-9.8,10-22.4,13.8-36,11.8c-7.3-1.1-14-5.8-12.2-14
	c1-4.4,6.8-10.1,11.2-10.9c21.6-4,31.5-15.2,30.7-37.1c-0.5-14-6.8-25.3-16.4-34.8c-5.2-5.1-11.2-7.5-19-4.5
	c-6.6,2.6-13.3,2.5-16-6.2c-2.6-8.5,1.5-14.3,9-17.5c14.7-6.3,34.3-0.3,47.4,15C758.2,1628.6,766.3,1644.1,766.3,1662.9
	L766.3,1662.9z"/>
<path class="st21" d="M751,1025.9c0.2,25.8-8.6,47.4-30.3,62.6c-18.4,12.8-37.4,9.9-51.6-7.5c-5.6-6.9-5.8-16.1-0.2-20.5
	c7.3-5.7,13.5-3,19.2,3c8.2,8.5,15.7,8.9,23.9,0c13.3-14.4,18.5-31.6,13.5-50.9c-0.8-3-4.8-6.5-8-7.4c-7.1-1.9-12.4-5.8-10-12.8
	c1.5-4.4,7.2-9.5,11.8-10.3c15.8-2.8,30.2,12.6,31.7,32.4C751.2,1018.2,751,1022,751,1025.9L751,1025.9z"/>
<path class="st16" d="M1450.1,1215.8c3.7,51.3-11.7,99-58.8,140.7c-10.3,9.1-22.7,16.4-37.4,20.8c-19.9,6-37,3.5-51.2-7
	c-13.6-10.1-20.6-23.3-23.3-37.8c-9.8-52.4,7.2-100.9,52.4-144.8c12.8-12.5,29.1-22.1,48.9-26.2c22-4.6,41.2,2.3,53.8,18.1
	C1443.1,1190.5,1447.8,1202.7,1450.1,1215.8L1450.1,1215.8z"/>
<path class="st16" d="M1824,1264.4c3.7,51.3-11.7,99-58.8,140.7c-10.3,9.1-22.7,16.4-37.4,20.8c-19.9,6-37,3.5-51.2-7
	c-13.6-10.1-20.6-23.3-23.3-37.8c-9.8-52.4,7.2-100.9,52.4-144.8c12.8-12.5,29.1-22.1,48.9-26.2c22-4.6,41.2,2.3,53.8,18.1
	C1817,1239.1,1821.6,1251.2,1824,1264.4L1824,1264.4z"/>
<g>
	<path class="st22" d="M1456.8,1652.8c0.4-5.2,0.4-10.5,1.3-15.6s4.5-7,9.5-5.3c35.5,11.7,72.1,17.7,109.1,21.3
		c6,0.6,9.3,5.1,6.7,9.3c-1.2,1.9-4.3,3.7-6.5,3.7c-3.7,0-5.7,0.8-8.3,3.9c-11,12.7-24.1,22.9-40.7,27.5
		C1495.9,1706.4,1463.1,1685.5,1456.8,1652.8L1456.8,1652.8z"/>
	<path class="st16" d="M1478.9,1651.2c0,0.4-0.1,1.2,0.1,2c0.3,1.4,0.5,2.9,1,4.2c5.2,13.8,14.6,23,29.5,24.7
		c15.8,1.8,27.5-6.8,38-17.1C1524.6,1660.5,1501.9,1655.9,1478.9,1651.2L1478.9,1651.2z"/>
</g>
<linearGradient id="SVGID_00000071523959082506344860000003282323777846125705_" gradientUnits="userSpaceOnUse" x1="2341.6001" y1="-581.3001" x2="2341.6001" y2="-581.3001" gradientTransform="matrix(1 0 0 1 0 2156)">
	<stop  offset="3.000000e-02" style="stop-color:#FFBC9C"/>
	<stop  offset="0.33" style="stop-color:#FEBC98"/>
	<stop  offset="0.56" style="stop-color:#FDBF8E"/>
	<stop  offset="0.78" style="stop-color:#FCC47E"/>
	<stop  offset="0.96" style="stop-color:#FBCA69"/>
</linearGradient>
<path style="fill:url(#SVGID_00000071523959082506344860000003282323777846125705_);" d="M2341.6,1574.7"/>
<path class="st24" d="M1966.2,1550c-12-16.8-26.8-31.7-40.7-47.9c-24.6,44.5-53.8,78.4-89.5,102.7c24.3,65.8,87.6,112.7,161.8,112.7
	c5.4,0,10.8-0.3,16.1-0.8c4.3-5.2,8.4-10.5,12.5-15.9c1.8-2.5,2.9-6.8,2.2-9.8C2017.3,1639.7,1996.6,1592.5,1966.2,1550L1966.2,1550
	z"/>
<path class="st24" d="M1319.8,1597.2c-16.1-3.2-32-9.4-47.6-18.9c-13.4-8.2-24.8-19.7-36.9-29.5c-3.4,53.4-17,99.1-42.1,140.2
	C1250.2,1684,1298.2,1647.6,1319.8,1597.2z"/>
<ellipse transform="matrix(0.7758 -0.6309 0.6309 0.7758 -687.152 772.5171)" class="st25" cx="743.6" cy="1353.3" rx="39.2" ry="30.6"/>
<ellipse transform="matrix(0.881 -0.4732 0.4732 0.881 -476.6269 542.9061)" class="st25" cx="840.8" cy="1218.8" rx="82.5" ry="61.1"/>
<ellipse transform="matrix(0.3065 -0.9519 0.9519 0.3065 190.5657 3022.5208)" class="st25" cx="2169.6" cy="1380.5" rx="38.3" ry="49.2"/>
<linearGradient id="SVGID_00000165956371704267749560000008182014815362776198_" gradientUnits="userSpaceOnUse" x1="2049.7854" y1="-846.9001" x2="2049.7854" y2="-479.2367" gradientTransform="matrix(1 0 0 1 0 2156)">
	<stop  offset="0" style="stop-color:#FFBD9A"/>
	<stop  offset="0.16" style="stop-color:#FDB997"/>
	<stop  offset="0.29" style="stop-color:#F8AE8F"/>
	<stop  offset="0.42" style="stop-color:#F19D81"/>
	<stop  offset="0.54" style="stop-color:#E6846E"/>
	<stop  offset="0.55" style="stop-color:#E6836E"/>
</linearGradient>
<path style="fill:url(#SVGID_00000165956371704267749560000008182014815362776198_);" d="M2045.6,1443.4
	c27-62.4,58.4-105.2,87.4-134.3c-18.8,1.8-37.3,6.1-55.6,12.9c-32.9,12.2-60.1,34.2-80.4,64c-19.1,28-31.1,58.1-30.4,92.2
	c0.2,12.3,1.4,25.3,6,36.4c5,12.1,14.5,22.4,22.2,33.4c18.6,26.9,33.1,55.9,45.1,86.3c2.6,6.6,8.7,12,14,17.1
	c4.2,4,9.4,7.1,14.5,9.9c18.7,10.2,38.3,16.9,59.8,15.2c0-4,0.1-7.7,0.1-11.2C2076.8,1635.8,1992.6,1565.9,2045.6,1443.4
	L2045.6,1443.4z"/>
<linearGradient id="SVGID_00000166664683506632343990000001733591062941006522_" gradientUnits="userSpaceOnUse" x1="658.0873" y1="-1032.5" x2="658.0873" y2="-343.3001" gradientTransform="matrix(1 0 0 1 0 2156)">
	<stop  offset="0" style="stop-color:#FFBD9A"/>
	<stop  offset="0.2" style="stop-color:#FDB997"/>
	<stop  offset="0.37" style="stop-color:#F8AE8F"/>
	<stop  offset="0.53" style="stop-color:#F19D81"/>
	<stop  offset="0.69" style="stop-color:#E6846E"/>
	<stop  offset="0.7" style="stop-color:#E6836E"/>
</linearGradient>
<path style="fill:url(#SVGID_00000166664683506632343990000001733591062941006522_);" d="M673,1270.1
	c37.1-72.2,78.5-104.4,125.5-146.6c-87.2,25.2-167,82.6-216.8,159.6c-58.3,90.2-77.9,189.3-54.2,294.6
	c22.5,100.3,79,177,170.4,225.9c6.2,3.3,12.6,6.3,19.2,9.1C635.7,1759.3,511.7,1583.8,673,1270.1L673,1270.1z"/>
<path class="st24" d="M973.1,1357.1c1.9,1.5,2.7,2.1,3.5,2.7c38,31.3,41,79.8,5.5,109.6c-18.9,15.8-42.8,22.8-66.5,27.1
	c-30.3,5.6-61.1,8.6-93.8,13c0.5,5.7,1.2,11.4,1.9,17.2c52.1-0.4,124.3-3.8,169.2-17.4c76.6-23.3,28.8-110.8,28.8-110.8
	s3.9-0.4,22.5-3.1c0.1-9.6,0.2-19.2,0.3-28.7c0.1-8.2,0-16.4,0-25C1019.8,1346.9,996.9,1351.9,973.1,1357.1L973.1,1357.1z"/>
<path class="st24" d="M1158.2,1373c-11.4-18.2-24.7-35.3-39.4-51.4c-2-2.2-6.3-4.6-8.3-3.8c-13.8,5.2-27.2,11.3-39.1,16.3
	c-0.2,19.1-0.5,38.2-0.8,57.3c3.5-0.5,7.3-1.1,11.3-1.7C1103.4,1386.6,1132.1,1379.9,1158.2,1373L1158.2,1373z"/>
<path class="st20" d="M1999.6,2005.7c-23.8,8.1-42.1,31.4-46.1,49.7c-2.5,11.4,2.3,19.4,14,21.2c15.8,2.4,31.8,3.9,47.8,5.8
	C1992.8,2059,1995,2026.3,1999.6,2005.7L1999.6,2005.7z"/>
<path class="st20" d="M2040.6,1962.1c-4.2-13.1-4.5-23.8-3.9-30.9c-1.1-0.2-2.2-0.5-3.2-0.8c-2.1-0.5-6.2,1.5-7.3,3.5
	c-7.2,12.9-13.7,26.2-20.8,39.9c14.8-1.8,28.4-0.5,41.4,2.8C2044.3,1971.7,2042.1,1966.7,2040.6,1962.1L2040.6,1962.1z"/>
<path class="st20" d="M2073.8,1918.4c-4.4-9-8.2-18.1-10-25.8c-2.7-11.5-2.4-23.2-1.4-32.3c-2.6-1.8-5.4-3.6-8.2-5.6
	c-5.5,17.8-10.6,34.4-15.7,51.2C2051.8,1908,2063.3,1912.4,2073.8,1918.4L2073.8,1918.4z"/>
<path class="st20" d="M1102.1,1980.4c6.3,17.7,14.9,57.6-12.4,102.3c3.9,8.5,10.2,11.2,22,9.2c21.5-3.6,43.4-4.1,65.8-5.9
	c6.9-33.8-5-62.1-27.4-84.6C1136.4,1987.6,1119.8,1982.5,1102.1,1980.4L1102.1,1980.4z"/>
<path class="st0" d="M645.2,1931"/>
<path class="st20" d="M1032,1892.8c-2.5,9.2-9.3,29.6-24.1,47.2c-3.1,3.7-6.5,7.8-10,12.2c16.9,14.5,39.1,2,39.3-5
	c0.4-17.7,0.2-35.3,0.2-54C1035.7,1893.1,1033.8,1892.9,1032,1892.8L1032,1892.8z"/>
<path class="st20" d="M1032.7,1852.8c-7.7-4.6-16.5-9.4-25.1-10.1c-3.7-0.3-7.3-0.3-10.9-0.2c-0.1,7.3-0.7,17.3-2.9,26.8
	c14.3-2.2,29.2-2.2,45.7-3.4C1037.2,1861.1,1036.2,1854.9,1032.7,1852.8L1032.7,1852.8z"/>
</svg>
